<mxfile host="app.diagrams.net" modified="2022-03-08T20:55:36.021Z" agent="5.0 (Windows NT 10.0; Win64; x64) AppleWebKit/537.36 (KHTML, like Gecko) Chrome/101.0.4931.0 Safari/537.36" etag="zCY5aVwodz9IMBU3FRNP" version="15.3.8" type="github">
  <diagram id="x9uthSsQRa709P_G4xWT" name="Page-1">
    <mxGraphModel dx="1471" dy="769" grid="1" gridSize="10" guides="1" tooltips="1" connect="1" arrows="1" fold="1" page="1" pageScale="1" pageWidth="850" pageHeight="1100" math="0" shadow="0">
      <root>
        <mxCell id="0" />
        <mxCell id="1" parent="0" />
        <mxCell id="MFwYnAs-XeH0WgAgJ0WI-1" value="mail@mail.dk" style="rounded=0;whiteSpace=wrap;html=1;" vertex="1" parent="1">
          <mxGeometry x="460" y="320" width="90" height="20" as="geometry" />
        </mxCell>
        <mxCell id="MFwYnAs-XeH0WgAgJ0WI-2" value="Password2" style="rounded=0;whiteSpace=wrap;html=1;" vertex="1" parent="1">
          <mxGeometry x="550" y="320" width="80" height="20" as="geometry" />
        </mxCell>
        <mxCell id="MFwYnAs-XeH0WgAgJ0WI-3" value="mail@mail.com" style="rounded=0;whiteSpace=wrap;html=1;" vertex="1" parent="1">
          <mxGeometry x="140" y="320" width="90" height="20" as="geometry" />
        </mxCell>
        <mxCell id="MFwYnAs-XeH0WgAgJ0WI-4" value="Password1" style="rounded=0;whiteSpace=wrap;html=1;" vertex="1" parent="1">
          <mxGeometry x="230" y="320" width="80" height="20" as="geometry" />
        </mxCell>
        <mxCell id="MFwYnAs-XeH0WgAgJ0WI-5" value="1" style="rounded=0;whiteSpace=wrap;html=1;" vertex="1" parent="1">
          <mxGeometry x="70" y="320" width="70" height="20" as="geometry" />
        </mxCell>
        <mxCell id="MFwYnAs-XeH0WgAgJ0WI-6" value="1" style="rounded=0;whiteSpace=wrap;html=1;" vertex="1" parent="1">
          <mxGeometry x="390" y="320" width="70" height="20" as="geometry" />
        </mxCell>
        <mxCell id="MFwYnAs-XeH0WgAgJ0WI-7" value="mail@mail.dk" style="rounded=0;whiteSpace=wrap;html=1;" vertex="1" parent="1">
          <mxGeometry x="300" y="380" width="90" height="20" as="geometry" />
        </mxCell>
        <mxCell id="MFwYnAs-XeH0WgAgJ0WI-9" value="1" style="rounded=0;whiteSpace=wrap;html=1;" vertex="1" parent="1">
          <mxGeometry x="230" y="380" width="70" height="20" as="geometry" />
        </mxCell>
        <mxCell id="MFwYnAs-XeH0WgAgJ0WI-10" value="" style="endArrow=classic;html=1;exitX=0.5;exitY=1;exitDx=0;exitDy=0;entryX=0.5;entryY=0;entryDx=0;entryDy=0;" edge="1" parent="1" source="MFwYnAs-XeH0WgAgJ0WI-3" target="MFwYnAs-XeH0WgAgJ0WI-7">
          <mxGeometry width="50" height="50" relative="1" as="geometry">
            <mxPoint x="450" y="380" as="sourcePoint" />
            <mxPoint x="500" y="330" as="targetPoint" />
          </mxGeometry>
        </mxCell>
        <mxCell id="MFwYnAs-XeH0WgAgJ0WI-12" value="Password2" style="rounded=0;whiteSpace=wrap;html=1;" vertex="1" parent="1">
          <mxGeometry x="390" y="380" width="80" height="20" as="geometry" />
        </mxCell>
        <mxCell id="MFwYnAs-XeH0WgAgJ0WI-14" value="" style="endArrow=classic;html=1;entryX=0.5;entryY=0;entryDx=0;entryDy=0;exitX=0.5;exitY=1;exitDx=0;exitDy=0;" edge="1" parent="1" source="MFwYnAs-XeH0WgAgJ0WI-2" target="MFwYnAs-XeH0WgAgJ0WI-12">
          <mxGeometry width="50" height="50" relative="1" as="geometry">
            <mxPoint x="450" y="380" as="sourcePoint" />
            <mxPoint x="500" y="330" as="targetPoint" />
          </mxGeometry>
        </mxCell>
      </root>
    </mxGraphModel>
  </diagram>
</mxfile>
